Coordinates
version=1
nRows=10
nColumns=28
inDegrees=yes

Units are S.I. units (second, meters, Newtons, ...)
Angles are in degrees.

endheader
time	pelvis_tilt	pelvis_list	pelvis_rotation	pelvis_tx	pelvis_ty	pelvis_tz	hip_flexion_r	hip_adduction_r	hip_rotation_r	knee_angle_r	ankle_angle_r	subtalar_angle_r	mtp_angle_r	hip_flexion_l	hip_adduction_l	hip_rotation_l	knee_angle_l	socket_flexion	socket_adduction	socket_rotation	socket_tx	socket_ty	socket_tz	foot_flex	lumbar_extension	lumbar_bending	lumbar_rotation
      0.97916667	     10.42632224	      3.97749183	     -6.23836566	      0.40995198	      1.03714757	      0.28272871	     -3.44089726	     -0.03794830	      2.33134220	    -19.71555321	      5.17762989	     -7.56970939	     33.20280667	     -1.71532844	      4.37786299	     -4.63537216	    -56.61225578	      0.00000000	      0.00000000	      0.00000000	      0.00000000	      0.01343382	      0.00000000	      5.24496115	    -18.33387391	     -5.15085629	     12.20216989
      0.98333333	     10.40754861	      4.06472607	     -6.48835768	      0.41461720	      1.03775387	      0.28330522	     -3.85847266	     -0.22882381	      2.29201412	    -19.35913581	      5.19764320	     -7.39308383	     33.27488616	     -1.14597596	      4.44649088	     -4.56281596	    -56.30628913	      0.00000000	      0.00000000	      0.00000000	      0.00000000	      0.01338588	      0.00000000	      5.24334197	    -18.29074829	     -5.33645211	     12.20151604
      0.98750000	     10.38208027	      4.14845689	     -6.74458672	      0.41924831	      1.03833557	      0.28387058	     -4.27028118	     -0.41674259	      2.30615865	    -18.98860649	      5.14852957	     -7.11149975	     33.36849184	     -0.59673244	      4.52641862	     -4.46197066	    -55.93286170	      0.00000000	      0.00000000	      0.00000000	      0.00000000	      0.01325592	      0.00000000	      5.24034323	    -18.24823401	     -5.51968525	     12.28668597
      0.99166667	     10.39716811	      4.11396901	     -7.02248884	      0.42337313	      1.03879983	      0.28435253	     -4.54898746	     -0.49064048	      2.22837510	    -18.94720587	      5.14867268	     -7.06062367	     33.37516994	     -0.05512396	      4.48209450	     -4.37943800	    -55.60576623	      0.00000000	      0.00000000	      0.00000000	      0.00000000	      0.01300124	      0.00000000	      5.26219144	    -18.36414110	     -5.54800466	     12.30831394
      0.99583333	     10.32362242	      4.25410540	     -7.27456833	      0.42842691	      1.03936021	      0.28498881	     -5.05563193	     -0.72594679	      2.32382681	    -18.29957986	      5.06686051	     -6.62036731	     33.49704756	      0.45961980	      4.62710829	     -4.24143003	    -55.05180785	      0.00000000	      0.00000000	      0.00000000	      0.00000000	      0.01292050	      0.00000000	      5.23509485	    -18.16374473	     -5.80770963	     12.51354228
      1.00000000	     10.34476606	      4.20108099	     -7.55405860	      0.43240292	      1.03978453	      0.28553071	     -5.31427728	     -0.77438113	      2.25322720	    -18.29287957	      5.05933030	     -6.56666847	     33.50368134	      1.00985824	      4.56166083	     -4.13157518	    -54.69997231	      0.00000000	      0.00000000	      0.00000000	      0.00000000	      0.01281870	      0.00000000	      5.25375421	    -18.30206341	     -5.83616442	     12.54045820
      1.00416667	     10.23328108	      4.28397280	     -7.80041338	      0.43749365	      1.04020596	      0.28605691	     -5.78191323	     -0.95885613	      2.38686113	    -17.65063412	      4.91477188	     -5.97900390	     33.67581349	      1.46800137	      4.67216185	     -3.91076259	    -53.97530981	      0.00000000	      0.00000000	      0.00000000	      0.00000000	      0.01229136	      0.00000000	      5.17923283	    -18.06732250	     -6.03426208	     12.85627252
      1.00833333	     10.25815103	      4.22442100	     -8.07646165	      0.44137467	      1.04059012	      0.28660749	     -6.03240526	     -1.00126963	      2.30894158	    -17.65240312	      4.90837235	     -5.92319613	     33.68533999	      2.02537205	      4.59167923	     -3.80215188	    -53.59984490	      0.00000000	      0.00000000	      0.00000000	      0.00000000	      0.01239350	      0.00000000	      5.20225101	    -18.21797461	     -6.05535003	     12.88697196
      1.01250000	     10.23667751	      4.29440144	     -8.39580915	      0.44653162	      1.04083609	      0.28690057	     -6.33101571	     -1.35925246	      1.69893612	    -17.44121741	      4.68681762	     -3.48676819	     36.35714408	      2.28910949	      4.74454700	     -3.58564733	    -52.70139782	      0.00000000	      0.00000000	      0.00000000	      0.00000000	      0.01143961	      0.00000000	      5.07988874	    -18.07860716	     -6.25283281	     13.60916914
      1.01666667	     10.25077351	      4.23836215	     -8.65726154	      0.45038704	      1.04117567	      0.28744921	     -6.57467900	     -1.40180531	      1.63602447	    -17.42864799	      4.69291688	     -3.47002240	     36.34636441	      2.85180347	      4.66685147	     -3.44500516	    -52.27817747	      0.00000000	      0.00000000	      0.00000000	      0.00000000	      0.01168076	      0.00000000	      5.11505462	    -18.22677943	     -6.28644724	     13.61578408
